# xmcd CD database file
#
# Track frame offsets:
#	183
#	17958
#	43833
#	70608
#	97833
#	124008
#	141633
#	154158
#	169233
#	189333
#
# Disc length: 2623 seconds
#
# Revision: 0
# Processed by: cddbd v1.5.1PL2 Copyright (c) Steve Scherf et al.
# Submitted via: CDex 1.50beta10
#
DISCID=870a3d0a
DTITLE=Koono - Senegal
DYEAR=1989
DGENRE=Jazz
TTITLE0=Mango Tango
TTITLE1=To Shining Z'ee
TTITLE2=Interstate 15
TTITLE3=Kaibab Forest
TTITLE4=Senegal
TTITLE5=Jungle Book
TTITLE6=The Cloister
TTITLE7=Pirates
TTITLE8=The Swamp
TTITLE9=Music Of Mourning
EXTD=YEAR: 1989
EXTT0=
EXTT1=
EXTT2=
EXTT3=
EXTT4=
EXTT5=
EXTT6=
EXTT7=
EXTT8=
EXTT9=
PLAYORDER=
